<?xml version="1.0" encoding="utf-8"?>
<!-- Generator: Adobe Illustrator 21.0.2, SVG Export Plug-In . SVG Version: 6.00 Build 0)  -->
<svg version="1.1" id="Layer_1" xmlns="http://www.w3.org/2000/svg" xmlns:xlink="http://www.w3.org/1999/xlink" x="0px" y="0px"
	 viewBox="0 0 80 80" style="enable-background:new 0 0 80 80;" xml:space="preserve">
<style type="text/css">
	.st0{fill:#0876B4;}
</style>
<path class="st0" d="M65.7,36.6c0.1,0.8,0.2,1.5,0.3,2.3H54.6c0-0.8-0.1-1.5-0.2-2.3h-2.8c0.1,0.8,0.1,1.5,0.2,2.3H38.9v-9.4
	c0.8,0,1.6-0.1,2.4-0.1V26c-0.8,0.1-1.6,0.1-2.4,0.1V13c0.3,0,0.5,0,0.8,0c0.5,0.2,1.1,0.4,1.6,0.7v-3.2c0-0.3,0-0.6,0.1-0.8
	c-1.2-0.1-2.5-0.2-3.8-0.2c-10.4,0-19.7,5-25.6,12.8c-0.1,0.1-0.2,0.2-0.3,0.3c0,0,0.1,0,0.1,0.1C8,28,5.7,34.4,5.7,41.4
	C5.7,59,20,73.4,37.6,73.4S69.5,59,69.5,41.4c0-1.7-0.1-3.3-0.4-4.9H65.7z M38.9,42.1h13c0,4.2-0.5,8.3-1.5,11.9
	c-3.5-0.8-7.4-1.3-11.5-1.3V42.1z M34.9,13.1c0.3,0,0.7-0.1,1-0.1v13.1c-3.7-0.1-7.2-0.5-10.4-1.2c0.5-1.5,1.1-2.9,1.8-4.2
	C29.5,16.7,32.1,14.1,34.9,13.1z M22.9,38.9c0.2-3.8,0.7-7.4,1.6-10.7c3.5,0.8,7.4,1.2,11.4,1.3v9.4H22.9z M35.9,42.1v10.6
	c-4.1,0.1-8,0.6-11.6,1.4c-0.9-3.7-1.4-7.8-1.5-12H35.9z M28.2,14.5c-1.2,1.4-2.3,3-3.3,4.9c-0.8,1.5-1.5,3.1-2.1,4.8
	c-1.6-0.4-3-1-4.4-1.5c-0.6-0.2-1.1-0.5-1.6-0.8C19.9,18.6,23.8,16.1,28.2,14.5z M14.6,24.6c0.8,0.4,1.6,0.8,2.4,1.2
	c1.5,0.6,3,1.2,4.7,1.7c-0.9,3.5-1.5,7.4-1.7,11.4H9.2C9.7,33.6,11.6,28.7,14.6,24.6z M14.4,57.9c-3.2-4.5-5.1-10-5.3-15.9h11
	c0,4.5,0.6,8.8,1.6,12.7c-1.5,0.4-2.9,1-4.2,1.5C16.3,56.8,15.3,57.4,14.4,57.9z M16.5,60.6c0.7-0.4,1.4-0.8,2.3-1.1
	c1.2-0.5,2.5-1,3.8-1.4c0.6,1.9,1.4,3.7,2.3,5.4c1,1.9,2.1,3.5,3.3,4.9C23.7,66.8,19.7,64.1,16.5,60.6z M39.7,69.9
	c-0.7,0-1.4,0.1-2.1,0.1c-0.9,0-1.8,0-2.7-0.1c-2.8-1-5.4-3.6-7.5-7.7c-0.8-1.5-1.5-3.1-2-4.8c3.3-0.7,6.9-1.2,10.6-1.3v13.6h3V56.1
	c3.7,0.1,7.3,0.5,10.5,1.2c-0.6,1.7-1.3,3.4-2.1,4.9C45.2,66.3,42.5,68.9,39.7,69.9z M46.3,68.6c1.3-1.4,2.5-3.1,3.5-5.1
	c0.9-1.7,1.7-3.5,2.3-5.5c1.5,0.4,2.9,0.9,4.2,1.5c0.8,0.4,1.6,0.8,2.3,1.2C55.4,64.3,51.1,67.1,46.3,68.6z M57.7,56.4
	c-1.4-0.6-3-1.2-4.6-1.7c1-3.9,1.5-8.2,1.6-12.6h11.5C66,48,64,53.5,60.8,58C59.9,57.4,58.9,56.9,57.7,56.4z"/>
<path id="XMLID_2199_" class="st0" d="M47.8,6.4c-2.3,0-4.2,1.9-4.2,4.2V30c0,2.3,1.9,4.2,4.2,4.2h26.7c2.3,0,4.2-1.9,4.2-4.2V10.6
	c0-2.3-1.9-4.2-4.2-4.2H47.8z M76.2,30c0,0.9-0.7,1.7-1.7,1.7H47.8c-0.9,0-1.7-0.7-1.7-1.7V19.3h30V30z M76.2,10.6v2.9h-30v-2.9
	c0-0.9,0.7-1.7,1.7-1.7h26.7C75.4,8.9,76.2,9.7,76.2,10.6z"/>
</svg>
